<svg xmlns="http://www.w3.org/2000/svg" width="128" height="128" viewBox="0 0 128 128">
  <title>CHECK</title>
  <g>
    <path d="M32.952,76.424H26a1.75,1.75,0,0,0,0,3.5h6.952a1.75,1.75,0,0,0,0-3.5Z"/>
    <path d="M85.4,90.626H43.074a1.75,1.75,0,1,0,0,3.5H85.4a1.75,1.75,0,0,0,0-3.5Z"/>
    <path d="M32.952,90.626H26a1.75,1.75,0,0,0,0,3.5h6.952a1.75,1.75,0,0,0,0-3.5Z"/>
    <path d="M85.4,104.828H43.074a1.75,1.75,0,1,0,0,3.5H85.4a1.75,1.75,0,0,0,0-3.5Z"/>
    <path d="M32.952,104.828H26a1.75,1.75,0,0,0,0,3.5h6.952a1.75,1.75,0,0,0,0-3.5Z"/>
    <path d="M43.074,37.317H85.4a1.75,1.75,0,0,0,0-3.5H43.074a1.75,1.75,0,0,0,0,3.5Z"/>
    <path d="M32.952,33.817H26a1.75,1.75,0,0,0,0,3.5h6.952a1.75,1.75,0,0,0,0-3.5Z"/>
    <path d="M43.074,51.52H85.4a1.75,1.75,0,0,0,0-3.5H43.074a1.75,1.75,0,0,0,0,3.5Z"/>
    <path d="M32.952,48.02H26a1.75,1.75,0,0,0,0,3.5h6.952a1.75,1.75,0,0,0,0-3.5Z"/>
    <path d="M32.952,62.222H26a1.75,1.75,0,0,0,0,3.5h6.952a1.75,1.75,0,0,0,0-3.5Z"/>
    <path d="M118.808,71.105a18.372,18.372,0,0,0-16.6-18.261V6.307a1.749,1.749,0,0,0-1.75-1.75H29.476a.367.367,0,0,0-.094.021,1.735,1.735,0,0,0-1.144.491L9.705,23.6a1.732,1.732,0,0,0-.492,1.149.373.373,0,0,0-.021.089v96.852a1.75,1.75,0,0,0,1.75,1.75h89.515a1.749,1.749,0,0,0,1.75-1.75V89.367A18.372,18.372,0,0,0,118.808,71.105ZM27.726,10.531v12.56H15.167ZM12.692,119.943V26.591H29.476a1.75,1.75,0,0,0,1.75-1.75V8.057H98.707V52.844a18.373,18.373,0,0,0-14.294,9.378H43.074a1.75,1.75,0,0,0,0,3.5H82.917a18.264,18.264,0,0,0-.017,10.7H43.074a1.75,1.75,0,0,0,0,3.5h41.3a18.377,18.377,0,0,0,14.334,9.443v30.576Zm87.765-33.987a14.85,14.85,0,1,1,14.851-14.851A14.867,14.867,0,0,1,100.457,85.956Z"/>
    <path d="M43.543,23.115H67.856a1.75,1.75,0,0,0,0-3.5H43.543a1.75,1.75,0,0,0,0,3.5Z"/>
    <path d="M106.848,64.96l-8.58,8.581-4.2-4.2a1.75,1.75,0,0,0-2.474,2.475l5.438,5.438a1.749,1.749,0,0,0,2.475,0l9.817-9.818a1.75,1.75,0,1,0-2.474-2.475Z"/>
  </g>
</svg>
